
<svg xmlns="http://www.w3.org/2000/svg" viewBox="0 0 98.66 31.58"><defs><style>.cls-1{fill:#ffb6c4;}</style></defs><title>資產 1</title><g id="圖層_2" data-name="圖層 2"><g id="All_elements" data-name="All elements"><path class="cls-1" d="M63.19,23.61V.35h4.25V23.61Z"/><path class="cls-1" d="M54.46,4.87A8.52,8.52,0,0,0,50,1.1,19.61,19.61,0,0,0,43.71.35H31.6V23.61H44.09q6.63,0,9.33-3.34a13.31,13.31,0,0,0,2.7-8.64A12.9,12.9,0,0,0,54.46,4.87ZM49.92,17.21Q48.1,19,44.17,19H35.85V5h8.24a11.73,11.73,0,0,1,4.59.62,5.07,5.07,0,0,1,2.17,2.27,8.28,8.28,0,0,1,.9,4A7.19,7.19,0,0,1,49.92,17.21Z"/><path class="cls-1" d="M22.87,4.87A8.52,8.52,0,0,0,18.43,1.1,19.61,19.61,0,0,0,12.11.35H0V31.23H4.25V23.61h8.24q6.63,0,9.33-3.34a13.31,13.31,0,0,0,2.7-8.64A12.9,12.9,0,0,0,22.87,4.87ZM18.32,17.21Q16.5,19,12.57,19H4.25V5h8.24a11.73,11.73,0,0,1,4.59.62,5.07,5.07,0,0,1,2.17,2.27,8.28,8.28,0,0,1,.9,4A7.19,7.19,0,0,1,18.32,17.21Z"/><path class="cls-1" d="M92.61,14.79A51,51,0,0,0,85.82,13q-4.95-1-6.36-2.07A3.33,3.33,0,0,1,78,8.08,3.77,3.77,0,0,1,80,4.82a10.29,10.29,0,0,1,5.6-1.26A9.51,9.51,0,0,1,91.19,5,5.27,5.27,0,0,1,93,7.35h4.43a8.2,8.2,0,0,0-1.39-3.09A9.52,9.52,0,0,0,91.82,1.1,17,17,0,0,0,85.44,0Q80.13,0,77,2.35a7.26,7.26,0,0,0-3.13,6.06A6.51,6.51,0,0,0,75,12.1a8.34,8.34,0,0,0,3,2.7,28.1,28.1,0,0,0,6.58,2.11,53.21,53.21,0,0,1,6.76,1.82,5.52,5.52,0,0,1,2.34,1.65,3.76,3.76,0,0,1,.78,2.36,4.36,4.36,0,0,1-2.14,3.75,10.64,10.64,0,0,1-6,1.44,13,13,0,0,1-4.84-.85,8,8,0,0,1-3.31-2.26,5.59,5.59,0,0,1-.75-1.21h-4.5a9.2,9.2,0,0,0,3.42,5.17Q80,31.58,86,31.58a17.65,17.65,0,0,0,6.65-1.12,10,10,0,0,0,4.37-3.27,7.8,7.8,0,0,0,1.61-4.77,7,7,0,0,0-1.53-4.54A10.57,10.57,0,0,0,92.61,14.79Z"/></g></g></svg>